<svg width="500" height="280" viewBox="0 0 132.29166 74.083335" id="svg5">
    <path id="path28506" style="fill:none;stroke:#000000;stroke-width:0.264583px;stroke-linecap:butt;stroke-linejoin:miter;stroke-opacity:1" d="M 27.655783,23.773814 C 26.23996,25.035863 27.686813,26.455181 28.580605,25.963347 29.859303,25.476235 29.85995,23.645353 29.085384,22.647561 28.310817,21.649769 26.397994,21.51542 25.628593,22.609306 24.859191,23.703193 24.976167,25.308108 25.690143,26.737396 27.528344,29.883828 30.066235,34.039215 30.032725,36.176692 30.018835,38.510625 29.030262,39.437307 27.550838,39.715433 26.173809,39.974309 24.985034,38.4463 25.194014,37.125126 25.402186,35.986023 26.242184,35.343817 27.284196,35.834295 28.759634,36.528788 30.343422,39.203228 31.216763,39.185438 32.090104,39.167648 32.849778,38.03346 32.977345,36.947966 L 33.201818,29.572831 C 33.76899,28.687777 34.445684,27.890561 34.517835,26.980357 34.589985,26.070153 33.617418,26.228257 33.180084,26.805086 32.869443,26.328206 31.966258,25.861035 31.8517,26.833886 31.737141,27.806732 32.697817,28.717032 33.201818,29.572836 L 32.977341,36.947971 C 33.107554,37.995623 33.215377,39.247642 34.097866,39.240906 35.691129,39.459098 39.721721,35.701007 40.27699,33.019817 40.164457,31.570687 39.006775,30.363138 37.82917,30.534086 36.651565,30.705034 36.018733,31.858417 35.725449,33.779454 35.432165,35.700491 35.859832,38.325676 37.048898,39.425166 38.237965,40.524657 40.298218,38.950748 40.253306,38.123562 40.208396,37.296376 40.242576,30.94058 40.242576,30.94058 40.320276,36.006141 40.184686,42.132415 40.814586,46.108281 41.444485,50.084147 41.292004,52.729632 41.08106,54.69772 40.977905,55.582257 40.056657,56.846203 38.679353,56.795033 37.30205,56.743863 37.269838,55.220325 37.340232,53.732506 37.850485,49.900046 38.546263,47.409853 39.149278,44.248526 L 41.313726,34.990003 C 41.313726,34.990003 42.857537,29.452825 43.92542,30.698533 44.371605,31.167234 44.367064,32.240929 44.367064,32.240929 L 44.343394,39.424594 44.367064,32.240929 C 44.545031,31.801649 44.436094,31.586763 45.192275,30.873039 45.948455,30.159314 47.532298,30.242112 47.971014,31.67279 48.40973,33.103468 48.358667,34.344658 48.406813,36.360025 48.454963,38.375392 48.746387,39.024536 49.379199,39.315143 50.01201,39.605751 50.782666,39.164223 51.323704,38.667138 52.82753,37.235356 53.928013,34.472974 54.271697,32.177945 53.955607,30.83445 52.5592,30.107497 51.730876,31.128246 50.902551,32.148995 50.522312,33.403492 50.550569,35.439456 50.578829,37.47542 51.115952,38.798621 52.024276,38.654397 52.932599,38.510172 53.402989,37.850786 53.698949,36.916701 53.994908,35.982616 54.136793,33.700016 54.271697,32.177945 54.230617,34.547598 53.53055,38.724168 54.412879,39.119802 55.740642,39.715167 56.582152,37.740358 56.796463,36.980056 57.010774,36.219754 58.272586,30.318654 58.272586,30.318654 58.272586,30.318654 59.794532,22.470508 58.805828,21.735792 57.817125,21.001075 57.842081,27.654199 57.842081,27.654199 57.842081,27.654199 57.885919,38.328489 59.292399,38.739516 60.633084,39.131315 61.3283,38.219281 61.329006,38.218019 L 62.177464,26.203495 C 62.177464,26.203495 65.621391,20.047284 69.918372,20.604219 73.662277,21.08947 83.117218,23.575431 89.47082,23.398792 92.415156,23.316935 97.332631,23.220561 99.659773,21.228947 100.53719,20.463593 101.1228,19.662535 101.55344,18.842514 100.39064,21.72489 96.905798,23.501975 89.47082,23.398792 82.830398,23.325885 76.424651,21.61399 69.918372,20.604219 L 70.036898,39.032652 70.001166,33.477092 C 72.53978,31.547288 75.256956,29.779156 75.427144,26.433495 75.427144,26.433495 75.626003,22.233335 74.675801,21.751537 73.725598,21.269739 73.841729,24.865525 73.841729,24.865525 L 74.083829,39.381122 C 74.083829,39.381122 73.658362,32.565305 75.22637,31.214254 76.794378,29.863202 77.475235,31.761838 77.475235,31.761838 L 77.429151,37.201561 C 77.429151,37.201561 77.216981,39.739601 79.076763,38.558525 79.076763,38.558525 82.931209,32.296267 82.563728,31.201768 82.196246,30.107269 81.464725,30.174049 81.464725,30.174049 81.464725,30.174049 79.531783,30.314275 79.448521,36.00008 79.407644,38.791508 80.318808,38.919971 81.158598,38.971028 82.005822,39.022537 82.828416,37.07045 82.828416,37.07045 83.53405,35.256238 84.389524,32.94855 85.162059,31.915835 85.162059,31.915835 85.948659,30.321099 86.904773,30.207975 87.86089,30.09485 88.63808,31.596907 88.785418,33.529199 88.932757,35.461491 89.109186,38.519605 87.264096,39.11186 85.419008,39.704114 84.669518,36.960719 84.669518,36.960719 84.344669,35.581337 84.715955,32.810284 85.162059,31.915835 85.288681,33.035801 87.883479,35.419263 89.823328,32.616007 89.823328,32.616007 90.727468,31.734552 90.834686,30.724072 90.941905,29.713592 90.236765,29.733391 90.236765,29.733391 90.236765,29.733391 89.205662,29.619296 89.395861,31.221816 89.58606,32.824335 90.862069,32.332077 90.862069,32.332077 90.862069,32.332077 93.059861,31.970137 94.059656,30.099405 95.059452,28.228673 91.706863,35.288394 91.719687,36.85159 91.729779,38.081733 91.939119,39.378137 93.473044,39.214599 95.00697,39.051062 96.995014,31.179835 96.995014,31.179835 96.995014,31.179835 95.101437,36.99068 95.776079,38.201627 96.450721,39.412573 97.86374,38.101263 97.86374,38.101263 97.86374,38.101263 99.006499,37.282275 99.876423,34.480767 100.74635,31.679259 100.7434,31.176037 100.7434,31.176037 L 98.760395,38.442733 97.932059,44.68537 C 97.932059,44.68537 96.200668,53.528921 93.70943,53.741403 91.218193,53.953885 92.027263,51.0517 92.027263,51.0517 92.027263,51.0517 93.25354,47.309595 95.559405,44.905947 97.86527,42.502299 100.31994,39.32169 100.31994,39.32169 100.31994,39.32169 102.40904,36.438634 102.3536,33.795097 102.38392,33.095126 102.11781,32.304554 102.44367,31.550574 103.33368,29.491259 114.74244,38.852845 118.95477,34.794319 118.95477,34.794319 121.84463,29.813942 122.81379,27.8863 123.64957,26.223965 122.87544,24.359344 121.80661,24.081254 120.24155,23.674057 119.31242,25.002548 119.2189,26.96573 119.0888,23.707406 114.92356,23.46331 114.99535,26.578224 114.8981,28.269302 117.75516,31.750612 118.95477,34.794319 121.79976,38.913685 132.8007,35.712062 132.00183,39.394669 131.11712,44.310527 129.30293,50.109623 122.40175,56.305979 116.88028,61.462003 109.39748,65.114369 102.26759,67.896889 91.459143,71.941203 82.789969,73.270175 69.003079,73.879511 57.430831,74.130926 49.678955,72.868414 42.359746,71.434445 48.254215,70.603853 54.953589,65.797171 54.390715,61.160168 54.390715,61.160168 54.06631,59.979114 54.992196,60.145757 56.026749,60.331958 55.384489,61.681533 55.384489,61.681533 55.384489,61.681533 54.613082,62.772884 53.705023,62.069349 52.814737,61.379584 53.231133,59.295998 53.736471,58.736896 54.12132,58.236164 55.17805,57.349569 56.927299,57.2397 58.641832,57.132011 61.299506,57.818058 62.17319,59.920956 63.134242,62.234144 61.863415,64.503992 61.473339,64.844402 60.14136,66.006788 58.662658,65.963106 57.041304,66.003577 L 56.684704,58.739926 C 56.776158,56.203032 58.376894,61.073054 57.041304,66.003577 58.472437,65.954305 63.935077,66.064248 64.297413,64.113676 64.507359,62.314296 63.871101,60.136816 63.443715,61.756088 63.395443,62.469544 64.604664,62.05389 65.472952,61.780834 69.0218,60.469683 65.899207,59.39991 66.35787,61.875101 66.50983,62.960573 66.565332,64.309659 66.967089,65.541516 69.637192,65.682588 77.351881,59.822219 77.274153,58.742441 77.274153,58.742441 76.998984,57.399301 75.764037,57.303498 74.527416,57.207565 74.129457,58.793556 74.135899,59.023728 74.135899,59.023728 74.001882,61.114212 75.583277,61.715585 77.164672,62.316958 77.833618,63.775328 77.833618,63.775328 77.833618,63.775328 78.342149,65.091671 77.400377,65.875272 76.626247,66.519386 75.658556,66.102935 75.657628,66.10254 75.246048,65.820688 75.218672,65.486325 75.121901,65.161447 75.012992,64.595812 81.598738,63.587792 81.473248,62.299594 81.581776,62.222247 80.793631,61.458745 80.25502,61.797609 79.922737,62.006663 79.433762,62.413492 79.406449,63.947358 79.379136,65.481224 80.235506,65.576389 80.235506,65.576389 80.235506,65.576389 80.941391,65.881711 81.400771,64.797141 81.86015,63.712572 81.473248,62.299594 81.473248,62.299594 81.667829,63.609068 81.276641,65.68478 82.45596,65.706128 82.45596,65.706128 83.620461,65.12337 83.129655,62.93484 82.638849,60.74631 82.858376,61.650263 82.858376,61.650263 82.858376,61.650263 83.625699,62.147168 84.089353,61.665347 84.553008,61.183525 84.450905,61.372999 84.450905,61.372999 L 84.246881,64.626274 C 84.246881,64.626274 84.210397,65.911829 85.276657,65.434881 85.791239,65.15732 88.276791,61.655304 87.239224,61.574179 86.525518,61.535539 86.220475,62.653979 86.220475,62.653979 86.220475,62.653979 85.953633,64.331873 86.184878,64.827758 86.416124,65.323642 86.773731,65.402925 86.773731,65.402925 86.773731,65.402925 87.781157,65.542009 87.928586,64.422227 87.928586,64.422227 88.120663,63.433192 88.056307,62.718823 87.992369,62.009099 87.393176,61.560199 87.239224,61.574179 87.56557,61.844586 87.970398,61.953419 88.056307,62.718823 88.046357,64.297708 87.987505,66.705345 89.392379,64.375342 L 90.772794,60.757484 C 90.772794,60.757484 91.306275,58.904401 90.868961,57.734636 90.467304,56.66025 89.925383,56.800962 89.925383,56.800962 89.925383,56.800962 89.093322,56.692745 89.258109,58.250482 89.306996,58.712613 89.657223,60.144705 89.901985,61.036762 90.485174,63.162237 89.959182,65.481848 89.959182,65.481848 90.148783,64.001415 90.317187,63.529056 90.118391,62.303131 90.452847,61.781755 90.750428,61.148993 91.378507,61.514555 91.700915,61.832752 91.463818,63.022953 91.280015,64.130096 91.280015,64.130096 91.232305,65.178294 92.048649,65.470396 92.864994,65.762497 93.700393,64.474274 93.700393,64.474274 94.256667,63.306247 96.165752,62.236307 97.820306,64.340805 L 101.023,68.340934 C 91.46976,71.775812 80.674913,73.449615 69.003079,73.879511 60.963232,74.271701 53.475695,73.211211 45.988065,72.150967 39.185161,71.093075 33.068996,68.988632 27.046395,66.741602 21.051933,64.185092 15.383717,61.170113 10.588142,56.928817 6.5101247,53.261613 3.296451,49.288003 1.6327584,44.764932 0.58508493,42.271566 0.31976112,39.804782 0.17141581,37.341973 0.00748937,29.980688 3.5940815,24.819151 7.6831824,19.952344 14.678532,13.212341 22.959449,8.1259053 32.911505,5.1889798 41.509401,3.012761 49.862839,0.5089711 59.952743,0.33203571 73.83539,-0.03915163 86.60122,1.0137865 97.403871,4.5701006 108.75687,8.1457812 117.40995,12.65486 122.78662,18.132871 127.06852,22.5387 129.73726,25.794137 131.21301,30.940642 132.05761,33.707607 132.29389,36.527955 132.00183,39.394669 132.47923,35.12592 131.62371,31.039151 129.67955,27.101011 126.29108,21.248193 121.07265,15.804727 115.19467,12.380785 103.8075,5.9411671 91.807186,2.0210905 79.128145,0.89011088 64.785958,-0.69795433 51.650944,0.40514802 39.341768,3.3493027 30.618853,6.3462882 23.874906,6.4208127 8.778682,18.829641 4.8073929,23.496665 0.51456017,27.755661 0.17141581,37.341973 2.2935658,38.7662 5.8527193,38.956086 9.1592925,35.96227 L 12.167247,29.76105 C 12.167247,29.76105 13.20268,27.368896 12.763194,25.599689 12.323709,23.830482 11.20762,24.361534 11.20762,24.361534 10.178528,24.786288 9.8005666,25.807598 9.4642294,26.803552 9.4642294,26.803552 8.6892298,24.793918 7.5224981,24.763125 6.3557665,24.732333 5.9803597,25.560401 5.9803597,25.560401 5.9803597,25.560401 5.3382957,27.077861 6.5958213,29.797613 7.8533469,32.517365 9.1592925,35.96227 9.1592925,35.96227 14.390712,40.780169 18.379493,33.91022 19.794739,30.028501 21.691921,22.852352 29.085384,22.647561 27.655783,23.773814 Z" />
</svg>